<svg xmlns="http://www.w3.org/2000/svg" viewBox="0 0 64 64" width="64" height="64" fill="none" stroke="currentColor" stroke-width="2" stroke-linecap="round" stroke-linejoin="round"><rect x="6" y="24" width="52" height="32" rx="4" fill="currentColor" fill-opacity="0.12"/><rect x="14" y="12" width="8" height="10" rx="2" fill="currentColor" fill-opacity="0.3"/><path d="M16.5 22L16.5 26"/><path d="M19.5 22L19.5 26"/><rect x="26" y="12" width="8" height="10" rx="2" fill="currentColor" fill-opacity="0.3"/><path d="M28.5 22L28.5 26"/><path d="M31.5 22L31.5 26"/><rect x="38" y="12" width="8" height="10" rx="2" fill="currentColor" fill-opacity="0.3"/><path d="M40.5 22L40.5 26"/><path d="M43.5 22L43.5 26"/><path d="M10 40L22 40" stroke-opacity="0.9"/><path d="M18.6 36.6L22 40L18.6 43.4" stroke-opacity="0.9"/><path d="M42 40L54 40" stroke-opacity="0.9"/><path d="M50.6 36.6L54 40L50.6 43.4" stroke-opacity="0.9"/><circle cx="32" cy="40" r="5" fill="currentColor" fill-opacity="0.25"/><circle cx="50" cy="12" r="1.8" fill="currentColor" fill-opacity="0.9" stroke="none"/></svg>
