<svg xmlns="http://www.w3.org/2000/svg" viewBox="0 0 24 24" width="24" height="24" fill="none" stroke="currentColor" stroke-width="1.75" stroke-linecap="round" stroke-linejoin="round"><rect x="8" y="2.5" width="8" height="3.5" rx="1.2" fill="currentColor" fill-opacity="0.3"/><path d="M12 6v2M12 8H4.5v3M12 8h7.5v3M12 8v3"/><ellipse cx="4.5" cy="12.3" rx="2.5" ry="1.3" fill="currentColor" fill-opacity="0.22400000000000003"/><path d="M2 12.3v6.4c0 1.6 1.5 1.3 2.5 1.3s2.5 0.3 2.5 -1.3v-6.4" fill="currentColor" fill-opacity="0.14"/><ellipse cx="12" cy="12.3" rx="2.5" ry="1.3" fill="currentColor" fill-opacity="0.22400000000000003"/><path d="M9.5 12.3v6.4c0 1.6 1.5 1.3 2.5 1.3s2.5 0.3 2.5 -1.3v-6.4" fill="currentColor" fill-opacity="0.14"/><ellipse cx="19.5" cy="12.3" rx="2.5" ry="1.3" fill="currentColor" fill-opacity="0.22400000000000003"/><path d="M17 12.3v6.4c0 1.6 1.5 1.3 2.5 1.3s2.5 0.3 2.5 -1.3v-6.4" fill="currentColor" fill-opacity="0.14"/></svg>
