<svg xmlns="http://www.w3.org/2000/svg" viewBox="0 0 64 64" width="64" height="64" fill="none" stroke="currentColor" stroke-width="2" stroke-linecap="round" stroke-linejoin="round"><rect x="20" y="4" width="24" height="10" rx="2.5" fill="currentColor" fill-opacity="0.3"/><path d="M32 14v5M32 19H11v7M32 19h21v7M32 19v7"/><path d="M3 28.72v24.56c0 3.81 3.6 5.44 8 5.44s8 -1.63 8 -5.44V28.72" fill="currentColor" fill-opacity="0.14"/><ellipse cx="11" cy="28.72" rx="8" ry="2.72" fill="currentColor" fill-opacity="0.27"/><path d="M24 28.72v24.56c0 3.81 3.6 5.44 8 5.44s8 -1.63 8 -5.44V28.72" fill="currentColor" fill-opacity="0.14"/><ellipse cx="32" cy="28.72" rx="8" ry="2.72" fill="currentColor" fill-opacity="0.27"/><path d="M45 28.72v24.56c0 3.81 3.6 5.44 8 5.44s8 -1.63 8 -5.44V28.72" fill="currentColor" fill-opacity="0.14"/><ellipse cx="53" cy="28.72" rx="8" ry="2.72" fill="currentColor" fill-opacity="0.27"/></svg>
